<?xml version="1.0" encoding="UTF-8"?>
<svg width="90px" height="90px" viewBox="0 0 90 90" version="1.1" xmlns="http://www.w3.org/2000/svg" xmlns:xlink="http://www.w3.org/1999/xlink">
    <title>icon/待办任务/化学</title>
    <defs>
        <linearGradient x1="82.1888385%" y1="56.7892708%" x2="70.887652%" y2="60.9813075%" id="linearGradient-1">
            <stop stop-color="#5F25C9" offset="0%"></stop>
            <stop stop-color="#B58DFF" offset="100%"></stop>
        </linearGradient>
        <linearGradient x1="20.5597805%" y1="42.9971352%" x2="64.2103212%" y2="65.827735%" id="linearGradient-2">
            <stop stop-color="#CDB2FF" offset="0%"></stop>
            <stop stop-color="#9C69F9" offset="100%"></stop>
        </linearGradient>
        <path d="M41.4447365,6 L41.4437747,22.0038222 C41.443751,22.3990309 41.5656957,22.7846173 41.7929619,23.1079437 L60.7940839,50.1404095 L60.7940839,50.1404095 C62.6628742,52.2003489 62.3220096,55.2334522 60.0327415,56.9150354 C59.0774628,57.6167359 57.8821541,58 56.6489973,58 L5.350838,58 C2.39565177,58 0,55.844334 0,53.1851852 C0,52.0755606 0.425932104,51 1.20575141,50.1404095 L21.2393458,23.1204092 C21.4845738,22.7896618 21.6169711,22.3888368 21.6169958,21.9770959 L21.617956,6 L21.617956,6 L41.4447365,6 Z" id="path-3"></path>
        <filter x="-4.0%" y="-4.8%" width="108.1%" height="109.6%" filterUnits="objectBoundingBox" id="filter-4">
            <feGaussianBlur stdDeviation="2.5" in="SourceAlpha" result="shadowBlurInner1"></feGaussianBlur>
            <feOffset dx="0" dy="0" in="shadowBlurInner1" result="shadowOffsetInner1"></feOffset>
            <feComposite in="shadowOffsetInner1" in2="SourceAlpha" operator="arithmetic" k2="-1" k3="1" result="shadowInnerInner1"></feComposite>
            <feColorMatrix values="0 0 0 0 0.859207063   0 0 0 0 0.782278963   0 0 0 0 1  0 0 0 1 0" type="matrix" in="shadowInnerInner1"></feColorMatrix>
        </filter>
    </defs>
    <g id="icon/待办任务/化学" stroke="none" stroke-width="1" fill="none" fill-rule="evenodd">
        <g id="编组" transform="translate(12.000000, 18.000000)">
            <path d="M46.0073352,6 L46.0063859,21.9708002 C46.0063612,22.3864206 46.1412133,22.7908251 46.3906802,23.1232505 L66.7235599,50.2176871 L66.7235599,50.2176871 C68.5719115,52.2776265 68.4756146,55.5238095 66.022738,56.9387755 C64.9809693,57.53973 62.3003392,58 61.0806693,58 L9.29231675,58 C6.36945092,58 4,55.844334 4,53.1851852 C4,52.0755606 4.42127375,51 5.19256431,50.1404095 L25.0089089,23.1178806 C25.2503575,22.7886296 25.3805496,22.3909762 25.3805739,21.9826826 L25.3815239,6 L25.3815239,6 L46.0073352,6 Z" id="路径" fill="url(#linearGradient-1)"></path>
            <g id="路径备份">
                <use fill="url(#linearGradient-2)" fill-rule="evenodd" xlink:href="#path-3"></use>
                <use fill="black" fill-opacity="1" filter="url(#filter-4)" xlink:href="#path-3"></use>
            </g>
            <circle id="椭圆形" fill="#D6C0FF" cx="33" cy="35" r="4"></circle>
            <circle id="椭圆形备份" fill="#D6C0FF" cx="44.5" cy="47.5" r="2.5"></circle>
            <circle id="椭圆形备份-2" fill="#D6C0FF" cx="20.5" cy="51.5" r="1.5"></circle>
            <path d="M19.1518991,0 L45.1202524,0 C46.7106931,-2.67326023e-15 48,1.28930694 48,2.87974764 L48,4.12025236 C48,5.71069306 46.7106931,7 45.1202524,7 L19.5358654,7 C18.6876304,7 18,6.31236963 18,5.46413459 L18,1.15189906 C18,0.515722774 18.5157228,3.38908292e-16 19.1518991,0 Z" id="矩形" fill="#FFCD71"></path>
            <rect id="矩形" fill="#F99C35" x="46" y="0" width="3" height="7" rx="0.767932704"></rect>
        </g>
        <rect id="矩形" x="0" y="1" width="90" height="89"></rect>
    </g>
</svg>