<?xml version="1.0" encoding="UTF-8"?>
<svg width="90px" height="90px" viewBox="0 0 90 90" version="1.1" xmlns="http://www.w3.org/2000/svg" xmlns:xlink="http://www.w3.org/1999/xlink">
    <title>icon/待办任务/物理</title>
    <defs>
        <linearGradient x1="92.626477%" y1="34.8272109%" x2="41.3651519%" y2="64.3695715%" id="linearGradient-1">
            <stop stop-color="#1E43CC" offset="0%"></stop>
            <stop stop-color="#4C79F0" offset="100%"></stop>
        </linearGradient>
        <linearGradient x1="64.6583246%" y1="60.2458699%" x2="6.17283589%" y2="12.6452208%" id="linearGradient-2">
            <stop stop-color="#719AF8" offset="0%"></stop>
            <stop stop-color="#B1CEFF" offset="100%"></stop>
        </linearGradient>
        <path d="M16.5714286,34.846875 C16.5714286,41.2620075 22.1358895,46.4625 29,46.4625 C35.777223,46.4625 40.8589193,41.5459573 40.9973339,35.2430207 L41,35 L41,2 C41,1.06262903 42.1704996,-9.23705556e-14 43.0857143,-9.23705556e-14 L56.3428571,-9.23705556e-14 C57.2580719,-9.23705556e-14 58,0.759889308 58,1.69726027 L58,34.846875 C58,49.8155176 45.0162577,61.95 29,61.95 C12.9837423,61.95 0,49.8155176 0,34.846875 L0,1.69726027 C0,0.759889308 0.741928129,-9.23705556e-14 1.65714286,-9.23705556e-14 L14.9142857,-9.23705556e-14 C15.8295004,-9.23705556e-14 16.5714286,0.759889308 16.5714286,1.69726027 L16.5714286,34.846875 Z" id="path-3"></path>
        <filter x="-1.7%" y="-1.6%" width="103.4%" height="103.2%" filterUnits="objectBoundingBox" id="filter-4">
            <feGaussianBlur stdDeviation="1" in="SourceAlpha" result="shadowBlurInner1"></feGaussianBlur>
            <feOffset dx="0" dy="0" in="shadowBlurInner1" result="shadowOffsetInner1"></feOffset>
            <feComposite in="shadowOffsetInner1" in2="SourceAlpha" operator="arithmetic" k2="-1" k3="1" result="shadowInnerInner1"></feComposite>
            <feColorMatrix values="0 0 0 0 1   0 0 0 0 0.989996189   0 0 0 0 0.989996189  0 0 0 0.203206949 0" type="matrix" in="shadowInnerInner1"></feColorMatrix>
        </filter>
        <linearGradient x1="0%" y1="53.9752508%" x2="100%" y2="53.9752508%" id="linearGradient-5">
            <stop stop-color="#FFCE72" offset="0%"></stop>
            <stop stop-color="#FFB464" offset="100%"></stop>
        </linearGradient>
        <path d="M1.1378682,0 L17,0 L17,0 L17,16 L0,16 L0,1.1378682 C-7.69601425e-17,0.509440946 0.509440946,-1.06604391e-16 1.1378682,0 Z" id="path-6"></path>
        <filter x="-5.9%" y="-6.2%" width="111.8%" height="112.5%" filterUnits="objectBoundingBox" id="filter-7">
            <feGaussianBlur stdDeviation="1" in="SourceAlpha" result="shadowBlurInner1"></feGaussianBlur>
            <feOffset dx="0" dy="0" in="shadowBlurInner1" result="shadowOffsetInner1"></feOffset>
            <feComposite in="shadowOffsetInner1" in2="SourceAlpha" operator="arithmetic" k2="-1" k3="1" result="shadowInnerInner1"></feComposite>
            <feColorMatrix values="0 0 0 0 1   0 0 0 0 1   0 0 0 0 1  0 0 0 0.197907561 0" type="matrix" in="shadowInnerInner1"></feColorMatrix>
        </filter>
        <linearGradient x1="0%" y1="53.9752508%" x2="100%" y2="53.9752508%" id="linearGradient-8">
            <stop stop-color="#FFCE72" offset="0%"></stop>
            <stop stop-color="#FFB464" offset="100%"></stop>
        </linearGradient>
        <linearGradient x1="-391.734905%" y1="50%" x2="100%" y2="50%" id="linearGradient-9">
            <stop stop-color="#FAA63E" offset="0%"></stop>
            <stop stop-color="#F89831" offset="100%"></stop>
        </linearGradient>
        <linearGradient x1="-366.371729%" y1="50%" x2="100%" y2="50%" id="linearGradient-10">
            <stop stop-color="#F9A038" offset="0%"></stop>
            <stop stop-color="#F89831" offset="100%"></stop>
        </linearGradient>
    </defs>
    <g id="icon/待办任务/物理" stroke="none" stroke-width="1" fill="none" fill-rule="evenodd">
        <g id="编组" transform="translate(16.000000, 14.000000)">
            <path d="M21,35 C21,41.4151325 26.7542363,46.4625 33.5,46.4625 C40.1603743,46.4625 45.5756375,41.3928323 45.7116655,35.0898957 L45.7142857,34.846875 L45.7142857,1.69726027 C45.7142857,0.759889308 46.443422,0 47.3428571,0 L60.3714286,0 C61.2708637,0 62.2,3.68383161 62.2,4.62120258 L62,35 C62,49.9686426 49.2401154,61.95 33.5,61.95 C17.7598846,61.95 5,49.8155176 5,34.846875 L5,1.69726027 C5,0.759889308 5.72913626,0 6.62857143,0 L19.6571429,0 C20.556578,0 21,1.06262903 21,2 L21,35 Z" id="路径备份" fill="url(#linearGradient-1)"></path>
            <g id="路径">
                <use fill="url(#linearGradient-2)" fill-rule="evenodd" xlink:href="#path-3"></use>
                <use fill="black" fill-opacity="1" filter="url(#filter-4)" xlink:href="#path-3"></use>
            </g>
            <g id="矩形">
                <use fill="url(#linearGradient-5)" fill-rule="evenodd" xlink:href="#path-6"></use>
                <use fill="black" fill-opacity="1" filter="url(#filter-7)" xlink:href="#path-6"></use>
            </g>
            <path d="M41.8878682,0 L58.75,0 L58.75,0 L58.75,16 L40.75,16 L40.75,1.1378682 C40.75,0.509440946 41.2594409,-1.06604391e-16 41.8878682,0 Z" id="矩形备份" fill="url(#linearGradient-8)"></path>
            <path d="M58.2,0 L61.0621318,0 C61.6905591,-1.15440214e-16 62.2,0.509440946 62.2,1.1378682 L62.2,16 L62.2,16 L58.2,16 L58.2,0 Z" id="矩形备份" fill="url(#linearGradient-9)"></path>
            <path d="M17,0 L19.8621318,0 C20.4905591,-1.15440214e-16 21,0.509440946 21,1.1378682 L21,16 L21,16 L17,16 L17,0 Z" id="矩形备份-2" fill="url(#linearGradient-10)"></path>
        </g>
        <rect id="矩形" x="0" y="0" width="90" height="90"></rect>
    </g>
</svg>