<?xml version="1.0" encoding="UTF-8"?>
<svg width="44px" height="44px" viewBox="0 0 44 44" version="1.1" xmlns="http://www.w3.org/2000/svg" xmlns:xlink="http://www.w3.org/1999/xlink">
    <title>icon/我的_修改密码</title>
    <g id="icon/我的_修改密码" stroke="none" stroke-width="1" fill="none" fill-rule="evenodd">
        <rect id="矩形" x="0" y="0" width="44" height="44"></rect>
        <path d="M32.4385113,25.8208959 C33.7254046,23.58637 34.4615385,20.9945363 34.4615385,18.2307692 C34.4615385,9.81904766 27.6424908,3 19.2307692,3 C10.8190477,3 4,9.81904766 4,18.2307692 C4,26.6424908 10.8190477,33.4615385 19.2307692,33.4615385 C22.2650323,33.4615385 23,33 24,32 L26.3796055,34.4165338 L26.10962,37.6764165 C26.0640355,38.2268168 26.4732696,38.7099579 27.0236699,38.7555424 C27.1168462,38.7632593 27.2106443,38.7578711 27.302324,38.7395352 L31,38 L31,38 L33,40 L40,39 L40,34.3846154 L32.4385113,25.8208959 Z" id="路径" stroke="#333333" stroke-width="2.8"></path>
        <circle id="椭圆形" stroke="#5981F9" stroke-width="2.8" cx="19.5" cy="17.5" r="4.1"></circle>
    </g>
</svg>