<?xml version="1.0" encoding="UTF-8"?>
<svg width="44px" height="44px" viewBox="0 0 44 44" version="1.1" xmlns="http://www.w3.org/2000/svg" xmlns:xlink="http://www.w3.org/1999/xlink">
    <title>icon/答题界面_正确</title>
    <g id="icon/答题界面_正确" stroke="none" stroke-width="1" fill="none" fill-rule="evenodd">
        <g id="正确" fill-rule="nonzero">
            <rect id="矩形" fill="#000000" opacity="0" x="0" y="0" width="44" height="44"></rect>
            <path d="M22,2 C11,2 2,11 2,22 C2,33 11,42 22,42 C33,42 42,33 42,22 C42,11 33,2 22,2 Z M34.5,17 L21.25,30.25 C20.25,31.25 18.625,31.25 17.75,30.25 L9.5,22 C9.5,22 8.25,20.75 9.5,19.5 C10.75,18.25 12,19.5 12,19.5 L19.5,27 L32,14.5 C32,14.5 33.25,13.25 34.5,14.5 C35.75,15.75 34.5,17 34.5,17 Z" id="形状" fill="#38B68B"></path>
        </g>
    </g>
</svg>