<?xml version="1.0" encoding="UTF-8"?>
<svg width="690px" height="293px" viewBox="0 0 690 293" version="1.1" xmlns="http://www.w3.org/2000/svg" xmlns:xlink="http://www.w3.org/1999/xlink">
    <title>banner/首页</title>
    <defs>
        <rect id="path-1" x="0" y="0" width="690" height="293" rx="8"></rect>
        <linearGradient x1="-1.67573507%" y1="47.4929853%" x2="50%" y2="59.015858%" id="linearGradient-3">
            <stop stop-color="#4686F9" offset="0%"></stop>
            <stop stop-color="#3572E8" offset="100%"></stop>
        </linearGradient>
        <linearGradient x1="50%" y1="0%" x2="50%" y2="100%" id="linearGradient-4">
            <stop stop-color="#C8EDFF" offset="0%"></stop>
            <stop stop-color="#297DE6" stop-opacity="0.0573645105" offset="100%"></stop>
        </linearGradient>
        <linearGradient x1="50%" y1="0%" x2="50%" y2="100%" id="linearGradient-5">
            <stop stop-color="#C8EDFF" offset="0%"></stop>
            <stop stop-color="#297DE6" stop-opacity="0.0573645105" offset="100%"></stop>
        </linearGradient>
        <linearGradient x1="22.6835329%" y1="21.5238314%" x2="50%" y2="62.9480621%" id="linearGradient-6">
            <stop stop-color="#1E7DE9" offset="0%"></stop>
            <stop stop-color="#0F73E5" offset="100%"></stop>
            <stop stop-color="#0F73E5" offset="100%"></stop>
        </linearGradient>
        <path d="M94.7623284,0.75865576 L153.030772,30.999734 C154.5896,31.8087594 155.197436,33.7282843 154.38841,35.2871128 C154.078148,35.8849248 153.586087,36.3687874 152.983147,36.6689625 L63.8539139,81.0421569 C62.9296073,81.5023251 61.8394215,81.4850866 60.9301261,80.9959249 L5.31064733,51.0750409 C3.76398063,50.2430009 3.18466129,48.314678 4.01670135,46.7680113 C4.32041621,46.2034404 4.78767839,45.7438479 5.35719812,45.4495175 L91.8374672,0.756128828 C92.7549835,0.281952283 93.8456327,0.282894549 94.7623284,0.75865576 Z" id="path-7"></path>
        <filter x="1.0%" y="-2.0%" width="97.8%" height="103.9%" filterUnits="objectBoundingBox" id="filter-8">
            <feGaussianBlur stdDeviation="1.5" in="SourceAlpha" result="shadowBlurInner1"></feGaussianBlur>
            <feOffset dx="0" dy="1" in="shadowBlurInner1" result="shadowOffsetInner1"></feOffset>
            <feComposite in="shadowOffsetInner1" in2="SourceAlpha" operator="arithmetic" k2="-1" k3="1" result="shadowInnerInner1"></feComposite>
            <feColorMatrix values="0 0 0 0 0.722389482   0 0 0 0 0.909058623   0 0 0 0 1  0 0 0 1 0" type="matrix" in="shadowInnerInner1"></feColorMatrix>
        </filter>
        <path d="M103.028299,50.5742663 L68.0567958,67.0952128 C65.8996959,68.114252 63.3841842,68.0339467 61.2964741,66.8793959 L25.7197774,47.20468 C24.695176,46.6380523 24.323915,45.3481063 24.8905427,44.3235049 C25.0926641,43.95802 25.398237,43.6603783 25.7689099,43.4679363 L56.9820086,27.2630461 C59.0841357,26.1716857 61.5809789,26.1494764 63.702187,27.2032704 L103.065962,46.7587818 C104.114539,47.2797042 104.542288,48.5520352 104.021366,49.6006127 C103.809245,50.0275972 103.459387,50.3706149 103.028299,50.5742663 Z" id="path-9"></path>
        <filter x="-5.5%" y="-9.5%" width="110.5%" height="128.2%" filterUnits="objectBoundingBox" id="filter-10">
            <feOffset dx="0" dy="2" in="SourceAlpha" result="shadowOffsetOuter1"></feOffset>
            <feGaussianBlur stdDeviation="2" in="shadowOffsetOuter1" result="shadowBlurOuter1"></feGaussianBlur>
            <feColorMatrix values="0 0 0 0 0.475561261   0 0 0 0 0.796091669   0 0 0 0 0.952247509  0 0 0 1 0" type="matrix" in="shadowBlurOuter1"></feColorMatrix>
        </filter>
        <ellipse id="path-11" cx="524.5" cy="84.5" rx="13.5" ry="7.5"></ellipse>
        <filter x="-25.9%" y="-33.3%" width="151.9%" height="193.3%" filterUnits="objectBoundingBox" id="filter-12">
            <feOffset dx="0" dy="2" in="SourceAlpha" result="shadowOffsetOuter1"></feOffset>
            <feGaussianBlur stdDeviation="2" in="shadowOffsetOuter1" result="shadowBlurOuter1"></feGaussianBlur>
            <feColorMatrix values="0 0 0 0 0.501345824   0 0 0 0 0.808762956   0 0 0 0 0.960031703  0 0 0 1 0" type="matrix" in="shadowBlurOuter1"></feColorMatrix>
        </filter>
        <filter id="filter-13">
            <feColorMatrix in="SourceGraphic" type="matrix" values="0 0 0 0 1.000000 0 0 0 0 1.000000 0 0 0 0 1.000000 0 0 0 1.000000 0"></feColorMatrix>
        </filter>
    </defs>
    <g id="banner/首页" stroke="none" stroke-width="1" fill="none" fill-rule="evenodd">
        <g>
            <g id="banner">
                <mask id="mask-2" fill="white">
                    <use xlink:href="#path-1"></use>
                </mask>
                <use id="矩形" fill="#D8D8D8" xlink:href="#path-1"></use>
                <rect id="矩形" fill="url(#linearGradient-3)" mask="url(#mask-2)" x="0" y="0" width="690" height="293"></rect>
                <polyline id="路径-29" stroke="#B4DFFF" mask="url(#mask-2)" points="584.055055 232.717005 638.58275 262 701.736253 225"></polyline>
                <ellipse id="椭圆形" stroke="#B4DFFF" fill="#2B81E8" mask="url(#mask-2)" cx="637.5" cy="262" rx="5" ry="3.5"></ellipse>
                <polyline id="路径" stroke="#C3E5FF" mask="url(#mask-2)" points="455.739201 233.884287 332.85455 297.850766 -0.486674819 125.448061 436.112735 -64.1492342 739.513325 78.5964954"></polyline>
                <line x1="36" y1="235" x2="36" y2="360" id="路径-28备份-2" stroke="url(#linearGradient-4)" stroke-width="2" stroke-linecap="round" mask="url(#mask-2)"></line>
            </g>
            <path d="M516.645803,271 L629.111191,204.133168 C630.702252,203.187195 631.225199,201.130523 630.279226,199.539462 C629.988894,199.051143 629.579199,198.644637 629.088626,198.35813 L476.028194,108.966743 C473.946491,107.750972 471.372278,107.746661 469.286515,108.955453 L355,175.189496 L355,175.189496 L516.645803,271 Z" id="路径-20备份-2" stroke="#C3E5FF" stroke-width="2"></path>
            <line x1="573" y1="57" x2="573" y2="168" id="路径-28备份" stroke="url(#linearGradient-5)" stroke-width="2" stroke-linecap="round"></line>
            <line x1="416" y1="39" x2="416" y2="150" id="路径-28备份-3" stroke="url(#linearGradient-5)" stroke-width="2" stroke-linecap="round"></line>
            <g id="书本" transform="translate(373.000000, 105.000000)">
                <path d="M143.685158,157 L243.120575,97.7900775 C244.711003,96.8430398 245.232573,94.7860178 244.285536,93.1955903 C243.995651,92.708766 243.58708,92.3033777 243.098003,92.0173086 L107.60494,12.7651076 C105.739888,11.6742065 103.432328,11.6703393 101.563629,12.754983 L5.89343938,68.2845704 C3.98281965,69.3935462 3.33295884,71.841412 4.44193465,73.7520318 C4.78459225,74.3423858 5.27262434,74.8352308 5.85958741,75.1836652 L143.685158,157 L143.685158,157 Z" id="路径-20备份" fill="#1367CC"></path>
                <path d="M150.19263,146 L231.11561,97.8523422 C232.706373,96.905868 233.228673,94.849031 232.282198,93.258268 C231.992076,92.7706527 231.582911,92.3646731 231.093043,92.0783717 L121.400791,27.9692059 C119.318177,26.7520313 116.74218,26.7477159 114.655499,27.9579059 L32,75.8947534 L32,75.8947534 L150.19263,146 Z" id="路径-20备份" fill="#2D90E6"></path>
                <polygon id="路径-22" fill="#FFFFFF" points="219.993671 75 222 95.2924516 147.905827 140 144 117.990903"></polygon>
                <path d="M145.19263,120 L226.11561,71.8523422 C227.706373,70.905868 228.228673,68.849031 227.282198,67.258268 C226.992076,66.7706527 226.582911,66.3646731 226.093043,66.0783717 L116.400791,1.96920587 C114.318177,0.752031258 111.74218,0.747715853 109.655499,1.95790591 L27,49.8947534 L27,49.8947534 L145.19263,120 Z" id="路径-20" fill="#51B3FF"></path>
                <polygon id="路径-21" fill="url(#linearGradient-6)" points="150 146 146.5 120 27 50 31.2549658 75.5021632"></polygon>
                <path d="M114.239745,23.1620661 L129,32.2036546 L129,32.2036546 L87.3507973,54.6288248 C86.1205869,55.2912067 84.6339093,55.2636741 83.4290681,54.5561961 L68,45.4963089 L68,45.4963089 L110.273858,23.0404512 C111.524186,22.3762776 113.032462,22.4225292 114.239745,23.1620661 Z" id="路径-23" stroke="#FFFFFF" stroke-linejoin="round"></path>
            </g>
            <g id="编组" transform="translate(480.000000, 105.000000)">
                <g id="路径-24">
                    <use fill="#8BD9FF" fill-rule="evenodd" xlink:href="#path-7"></use>
                    <use fill="black" fill-opacity="1" filter="url(#filter-8)" xlink:href="#path-7"></use>
                </g>
                <g id="路径-25">
                    <use fill="black" fill-opacity="1" filter="url(#filter-10)" xlink:href="#path-9"></use>
                    <use fill="#C8EDFF" fill-rule="evenodd" xlink:href="#path-9"></use>
                </g>
                <path d="M85.8817618,27.2844616 L101.914503,18.699966 C102.966253,18.1368218 104.227349,18.1254547 105.289079,18.6695487 C105.782344,18.922327 105.977297,19.5271147 105.724519,20.0203796 C105.632128,20.2006672 105.48734,20.3487734 105.309191,20.4452233 L89.3144521,29.1047901 C88.245415,29.6835678 86.9575148,29.6882979 85.8842551,29.1173884 C85.3777389,28.8479522 85.1855476,28.2189186 85.4549837,27.7124024 C85.5516861,27.5306104 85.7002336,27.3816582 85.8817618,27.2844616 Z" id="路径-26" fill="#C8EDFF"></path>
                <path d="M94.3617618,32.5844616 L110.394503,23.999966 C111.446253,23.4368218 112.707349,23.4254547 113.769079,23.9695487 C114.262344,24.222327 114.457297,24.8271147 114.204519,25.3203796 C114.112128,25.5006672 113.96734,25.6487734 113.789191,25.7452233 L97.7944521,34.4047901 C96.725415,34.9835678 95.4375148,34.9882979 94.3642551,34.4173884 C93.8577389,34.1479522 93.6655476,33.5189186 93.9349837,33.0124024 C94.0316861,32.8306104 94.1802336,32.6816582 94.3617618,32.5844616 Z" id="路径-26备份" fill="#C8EDFF"></path>
            </g>
            <path d="M478.333741,95.7037232 L504.522589,109.9649 C507.998863,111.857911 512.19677,111.863994 515.678515,109.981067 L560.6833,85.6424943 C561.945792,84.9597393 562.415761,83.3828054 561.733006,82.1203139 C561.485249,81.6621829 561.105552,81.2890649 560.643161,81.0493522 L535.018417,67.7649721 C531.670718,66.0294576 527.691582,66.0146329 524.331044,67.725155 L478.397725,91.1053254 C477.118607,91.7563994 476.609477,93.3211288 477.260551,94.6002464 C477.498642,95.0680056 477.872787,95.4527101 478.333741,95.7037232 Z" id="路径-27" fill="#A1E0FF"></path>
            <path d="M300.001312,259.762807 L322.957749,273.641327 C326.413117,275.7303 330.701657,275.889048 334.302011,274.061253 L382.483155,249.601095 C383.762961,248.951375 384.273746,247.387185 383.624026,246.107379 C383.377826,245.622418 382.985679,245.22692 382.502831,244.976602 L357.018417,231.764972 C353.670718,230.029458 349.691582,230.014633 346.331044,231.725155 L300.166964,255.222783 C298.887846,255.873857 298.378716,257.438587 299.02979,258.717704 C299.249776,259.149895 299.586303,259.51191 300.001312,259.762807 Z" id="路径-27备份" stroke="#BDE2FF" fill-opacity="0.4" fill="#A1E0FF" opacity="0.404592115"></path>
            <path d="M431.001312,47.7628071 L453.957749,61.6413267 C457.413117,63.7303002 461.701657,63.8890477 465.302011,62.0612535 L513.483155,37.6010947 C514.762961,36.9513747 515.273746,35.3871849 514.624026,34.107379 C514.377826,33.6224181 513.985679,33.2269204 513.502831,32.9766022 L488.018417,19.7649721 C484.670718,18.0294576 480.691582,18.0146329 477.331044,19.725155 L431.166964,43.2227834 C429.887846,43.8738574 429.378716,45.4385868 430.02979,46.7177044 C430.249776,47.1498947 430.586303,47.5119096 431.001312,47.7628071 Z" id="路径-27备份-2" stroke="#BDE2FF" fill-opacity="0.6" fill="#A1E0FF" opacity="0.404592115"></path>
            <path d="M44.0013123,244.762807 L66.9577491,258.641327 C70.4131168,260.7303 74.7016573,260.889048 78.3020108,259.061253 L126.483155,234.601095 C127.762961,233.951375 128.273746,232.387185 127.624026,231.107379 C127.377826,230.622418 126.985679,230.22692 126.502831,229.976602 L101.018417,216.764972 C97.6707176,215.029458 93.6915824,215.014633 90.3310441,216.725155 L44.1669635,240.222783 C42.8878459,240.873857 42.3787159,242.438587 43.0297899,243.717704 C43.2497758,244.149895 43.5863031,244.51191 44.0013123,244.762807 Z" id="路径-27备份-3" stroke="#BDE2FF" fill-opacity="0.4" fill="#A1E0FF" opacity="0.404592115"></path>
            <g id="椭圆形">
                <use fill="black" fill-opacity="1" filter="url(#filter-12)" xlink:href="#path-11"></use>
                <use fill="#C8EDFF" fill-rule="evenodd" xlink:href="#path-11"></use>
            </g>
            <line x1="656" y1="142" x2="656" y2="253" id="路径-28" stroke="url(#linearGradient-5)" stroke-width="2" stroke-linecap="round"></line>
        </g>
        <g filter="url(#filter-13)" id="AI">
            <g transform="translate(36.000000, 78.000000)">
                <path d="M44.6454592,51.930266 L33.6803076,29.3023626 L16.8182103,39.329157 M1.11910481e-13,49.6449711 L22.3227296,3.53833476 L30.916654,21.1382163 M0,49.6449711 L22.3227296,3.53833476 L30.916654,21.1382163 M22.3227296,3.53833476 L30.916654,21.1382163" id="形状" stroke="#834C05" stroke-width="5.28255" stroke-linejoin="round"></path>
                <line x1="57.4394077" y1="0.0185826656" x2="57.3812568" y2="13.4128744" id="路径-3" stroke="#834C05" stroke-width="5.28255" stroke-linejoin="bevel"></line>
                <rect id="矩形" fill="#834C05" x="54.8435802" y="19.5649098" width="5.28255" height="33.95925"></rect>
            </g>
        </g>
        <text id="慧学" font-family="SourceHanSansCN-Regular, Source Han Sans CN" font-size="60" font-weight="normal" fill="#FFFFFF">
            <tspan x="111" y="128">慧学</tspan>
        </text>
        <text id="智能AI精准自学系统" font-family="SourceHanSansCN-Regular, Source Han Sans CN" font-size="30" font-weight="normal" fill="#FFFFFF">
            <tspan x="36" y="191">智能AI精准自学系统</tspan>
        </text>
    </g>
</svg>