<?xml version="1.0" encoding="UTF-8"?>
<svg width="44px" height="44px" viewBox="0 0 44 44" version="1.1" xmlns="http://www.w3.org/2000/svg" xmlns:xlink="http://www.w3.org/1999/xlink">
    <title>icon/我的_隐私政策</title>
    <g id="icon/我的_隐私政策" stroke="none" stroke-width="1" fill="none" fill-rule="evenodd">
        <g id="编组-25备份">
            <rect id="矩形" x="0" y="0" width="44" height="44"></rect>
            <path d="M8,17 L36,17 C37.1045695,17 38,17.8954305 38,19 L38,35 C38,36.1045695 37.1045695,37 36,37 L8,37 C6.8954305,37 6,36.1045695 6,35 L6,19 C6,17.8954305 6.8954305,17 8,17 Z" id="路径-10" stroke="#333333" stroke-width="2.8"></path>
        </g>
        <path d="M13,17 L13,11 C13,8.790861 14.790861,7 17,7 L27,7 C29.209139,7 31,8.790861 31,11 L31,17 L31,17 L13,17 Z" id="路径-24" stroke="#333333" stroke-width="2.8"></path>
        <circle id="椭圆形备份" stroke="#5981F9" stroke-width="2.8" cx="22" cy="27" r="4.6"></circle>
    </g>
</svg>