<?xml version="1.0" encoding="UTF-8"?>
<svg width="90px" height="90px" viewBox="0 0 90 90" version="1.1" xmlns="http://www.w3.org/2000/svg" xmlns:xlink="http://www.w3.org/1999/xlink">
    <title>icon/待办任务/英语</title>
    <defs>
        <linearGradient x1="-7.53289534%" y1="50%" x2="100%" y2="50%" id="linearGradient-1">
            <stop stop-color="#FFC65C" offset="0%"></stop>
            <stop stop-color="#F89831" offset="100%"></stop>
        </linearGradient>
        <rect id="path-2" x="3.80460035" y="0.548886214" width="49.3509694" height="47.0009232" rx="10.2814519"></rect>
        <filter x="-9.1%" y="-9.6%" width="118.2%" height="119.1%" filterUnits="objectBoundingBox" id="filter-3">
            <feOffset dx="0" dy="0" in="SourceAlpha" result="shadowOffsetOuter1"></feOffset>
            <feGaussianBlur stdDeviation="1.5" in="shadowOffsetOuter1" result="shadowBlurOuter1"></feGaussianBlur>
            <feColorMatrix values="0 0 0 0 0.968627451   0 0 0 0 0.698039216   0 0 0 0 0.305882353  0 0 0 0.495137675 0" type="matrix" in="shadowBlurOuter1"></feColorMatrix>
        </filter>
        <linearGradient x1="0%" y1="53.9752508%" x2="100%" y2="53.9752508%" id="linearGradient-4">
            <stop stop-color="#FFC970" offset="0%"></stop>
            <stop stop-color="#FFB464" offset="100%"></stop>
        </linearGradient>
        <linearGradient x1="0%" y1="18.8593329%" x2="50%" y2="42.6525931%" id="linearGradient-5">
            <stop stop-color="#96F4CB" offset="0%"></stop>
            <stop stop-color="#BDFFE2" offset="0%"></stop>
            <stop stop-color="#4BD197" offset="99.9098558%"></stop>
        </linearGradient>
        <path d="M42.2960544,0 C48.6668178,0 53.8313419,5.57021385 53.8313419,12.4414208 L53.8313419,41.3726805 C53.8313419,42.4756165 54.3621537,43.5111497 55.2575954,44.1550845 L59.6056234,47.2818615 C60.2202951,47.7238875 60.3602521,48.5805103 59.9182261,49.195182 C59.6606522,49.5533587 59.2464389,49.7656834 58.8052645,49.7656834 L11.5352876,49.7656834 L11.5352876,49.7656834 C5.16452415,49.7656834 0,44.1954695 0,37.3242625 L0,12.4414208 C0,5.57021385 5.16452415,0 11.5352876,0 L42.2960544,0 Z" id="path-6"></path>
        <filter x="-1.6%" y="-2.0%" width="98.6%" height="104.0%" filterUnits="objectBoundingBox" id="filter-7">
            <feGaussianBlur stdDeviation="1" in="SourceAlpha" result="shadowBlurInner1"></feGaussianBlur>
            <feOffset dx="0" dy="0" in="shadowBlurInner1" result="shadowOffsetInner1"></feOffset>
            <feComposite in="shadowOffsetInner1" in2="SourceAlpha" operator="arithmetic" k2="-1" k3="1" result="shadowInnerInner1"></feComposite>
            <feColorMatrix values="0 0 0 0 1   0 0 0 0 1   0 0 0 0 1  0 0 0 0.197634397 0" type="matrix" in="shadowInnerInner1"></feColorMatrix>
        </filter>
        <path d="M28.5814975,34.5595024 L28.5814975,31.6553425 L16.9795212,31.6553425 L16.9795212,25.3823572 L27.4352781,25.3823572 L27.4352781,22.4781973 L16.9795212,22.4781973 L16.9795212,16.7279608 L28.1062358,16.7279608 L28.1062358,13.8238009 L13.7086026,13.8238009 L13.7086026,34.5595024 L28.5814975,34.5595024 Z M34.2273903,34.5595024 L34.2273903,25.5105559 C34.3385158,24.317608 34.7274551,23.3865267 35.3942082,22.7464083 C35.9776171,22.1644824 36.6721515,21.8735195 37.4500301,21.8735195 C39.6169776,21.8735195 40.7004513,23.0955637 40.7004513,25.5687485 L40.7004513,34.5595024 L43.8675283,34.5595024 L43.8675283,25.2777856 C43.8675283,21.1461123 42.0617388,19.1093719 38.4779411,19.1093719 C37.6167184,19.1093719 36.8388398,19.2839496 36.116524,19.6622014 C35.4219896,20.0113569 34.7830179,20.5641864 34.2273903,21.2624974 L34.2273903,19.51672 L31.0603133,19.51672 L31.0603133,34.5595024 L34.2273903,34.5595024 Z" id="path-8"></path>
        <filter x="-5.0%" y="-7.2%" width="109.9%" height="114.5%" filterUnits="objectBoundingBox" id="filter-9">
            <feOffset dx="0" dy="0" in="SourceAlpha" result="shadowOffsetOuter1"></feOffset>
            <feGaussianBlur stdDeviation="0.5" in="shadowOffsetOuter1" result="shadowBlurOuter1"></feGaussianBlur>
            <feColorMatrix values="0 0 0 0 1   0 0 0 0 1   0 0 0 0 1  0 0 0 0.198180726 0" type="matrix" in="shadowBlurOuter1"></feColorMatrix>
        </filter>
        <filter x="-6.6%" y="-9.6%" width="113.3%" height="119.3%" filterUnits="objectBoundingBox" id="filter-10">
            <feGaussianBlur stdDeviation="0.5" in="SourceAlpha" result="shadowBlurInner1"></feGaussianBlur>
            <feOffset dx="-1" dy="1" in="shadowBlurInner1" result="shadowOffsetInner1"></feOffset>
            <feComposite in="shadowOffsetInner1" in2="SourceAlpha" operator="arithmetic" k2="-1" k3="1" result="shadowInnerInner1"></feComposite>
            <feColorMatrix values="0 0 0 0 0.133333333   0 0 0 0 0.745098039   0 0 0 0 0.309803922  0 0 0 0.647017045 0" type="matrix" in="shadowInnerInner1"></feColorMatrix>
        </filter>
    </defs>
    <g id="icon/待办任务/英语" stroke="none" stroke-width="1" fill="none" fill-rule="evenodd">
        <g id="编组" transform="translate(4.000000, 16.000000)">
            <g id="矩形">
                <use fill="black" fill-opacity="1" filter="url(#filter-3)" xlink:href="#path-2"></use>
                <use fill="url(#linearGradient-1)" fill-rule="evenodd" xlink:href="#path-2"></use>
            </g>
            <rect id="矩形" fill="url(#linearGradient-4)" x="0.3774497" y="0.548886214" width="49.3509694" height="47.0009232" rx="10.2814519"></rect>
            <g id="编组-2" transform="translate(13.400622, 7.460787)">
                <path d="M46.4086351,0 C52.7793985,0 57.9439227,5.57021385 57.9439227,12.4414208 L57.9439227,41.3726805 C57.9439227,42.4756165 58.4747345,43.5111497 59.3701762,44.1550845 L63.7182042,47.2818615 C64.3328759,47.7238875 64.4728329,48.5805103 64.0308069,49.195182 C63.773233,49.5533587 63.3590197,49.7656834 62.9178453,49.7656834 L15.6478683,49.7656834 L15.6478683,49.7656834 C9.27710493,49.7656834 4.11258078,44.1954695 4.11258078,37.3242625 L4.11258078,12.4414208 C4.11258078,5.57021385 9.27710493,0 15.6478683,0 L46.4086351,0 Z" id="路径" fill="#057651"></path>
                <g id="路径备份">
                    <use fill="url(#linearGradient-5)" fill-rule="evenodd" xlink:href="#path-6"></use>
                    <use fill="black" fill-opacity="1" filter="url(#filter-7)" xlink:href="#path-6"></use>
                </g>
                <g id="En" fill-rule="nonzero">
                    <use fill="black" fill-opacity="1" filter="url(#filter-9)" xlink:href="#path-8"></use>
                    <use fill="#D9FFE6" xlink:href="#path-8"></use>
                    <use fill="black" fill-opacity="1" filter="url(#filter-10)" xlink:href="#path-8"></use>
                </g>
            </g>
        </g>
        <rect id="矩形" x="0" y="0" width="90" height="90"></rect>
    </g>
</svg>