<?xml version="1.0" encoding="UTF-8"?>
<svg width="44px" height="44px" viewBox="0 0 44 44" version="1.1" xmlns="http://www.w3.org/2000/svg" xmlns:xlink="http://www.w3.org/1999/xlink">
    <title>icon/答题界面_错误</title>
    <g id="icon/答题界面_错误" stroke="none" stroke-width="1" fill="none" fill-rule="evenodd">
        <g id="错误--关闭-01" fill-rule="nonzero">
            <rect id="矩形" fill="#000000" opacity="0" x="0" y="0" width="44" height="44"></rect>
            <path d="M22,42 C10.954305,42 2,33.045695 2,22 C2,10.954305 10.954305,2 22,2 C33.045695,2 42,10.954305 42,22 C42,27.3043298 39.8928632,32.3914081 36.1421356,36.1421356 C32.3914081,39.8928632 27.3043298,42 22,42 Z M18.9329591,21.5 L11.8643705,28.5686033 C11.2197087,28.9772346 10.8900858,29.738204 11.0329728,30.4879727 C11.1758597,31.2377415 11.7622569,31.8241399 12.5120241,31.9670272 C13.2617914,32.1099144 14.0227591,31.7802908 14.4313895,31.1356277 L21.4999782,24.0670244 L28.5686105,31.1356277 C28.9772409,31.7802908 29.7382086,32.1099144 30.4879759,31.9670272 C31.2377431,31.8241399 31.8241403,31.2377415 31.9670272,30.4879727 C32.1099142,29.738204 31.7802913,28.9772346 31.1356295,28.5686033 L24.0669973,21.5 L31.1356295,14.4313967 C31.7802913,14.0227654 32.1099142,13.261796 31.9670272,12.5120273 C31.8241403,11.7622585 31.2377431,11.1758601 30.4879759,11.0329728 C29.7382086,10.8900856 28.9772409,11.2197092 28.5686105,11.8643723 L21.4999782,18.9329756 L14.4313895,11.8643723 C13.6997611,11.4127995 12.7539862,11.5214601 12.1438315,12.1271912 C11.5336768,12.7329223 11.4181356,13.6778832 11.8643705,14.4127805 L18.9329591,21.5 Z" id="形状" fill="#E55757"></path>
        </g>
    </g>
</svg>