<?xml version="1.0" encoding="UTF-8"?>
<svg width="44px" height="44px" viewBox="0 0 44 44" version="1.1" xmlns="http://www.w3.org/2000/svg" xmlns:xlink="http://www.w3.org/1999/xlink">
    <title>icon/诊断详情_去练习</title>
    <g id="icon/诊断详情_去练习" stroke="none" stroke-width="1" fill="none" fill-rule="evenodd">
        <rect id="矩形" x="0" y="0" width="44" height="44"></rect>
        <path d="M38,24.6008739 L38,35.3428571 C38,37.3626414 36.4649763,39 34.5714286,39 L11.4285714,39 C9.53502371,39 8,37.3626414 8,35.3428571 L8,10.6571429 C8,8.63735863 9.53502371,7 11.4285714,7 L23.4285714,7" id="路径" stroke="#5981F9" stroke-width="2.8" stroke-linecap="round"></path>
        <path d="M23.1421356,4.14213562 L31.1421356,4.14213562 C32.2467051,4.14213562 33.1421356,5.03756612 33.1421356,6.14213562 L33.1421356,24.378579 C33.1421356,24.8547527 32.972242,25.3153031 32.6630091,25.6774031 L28.6630091,30.3612507 C27.9456884,31.2012059 26.6832668,31.3006209 25.8433116,30.5833002 C25.7635898,30.5152178 25.6893445,30.4409725 25.6212621,30.3612507 L21.6212621,25.6774031 C21.3120293,25.3153031 21.1421356,24.8547527 21.1421356,24.378579 L21.1421356,6.14213562 C21.1421356,5.03756612 22.0375661,4.14213562 23.1421356,4.14213562 Z" id="路径-36" stroke="#5981F9" stroke-width="2.8" transform="translate(27.142136, 18.142136) rotate(45.000000) translate(-27.142136, -18.142136) "></path>
    </g>
</svg>