<?xml version="1.0" encoding="UTF-8"?>
<svg width="90px" height="90px" viewBox="0 0 90 90" version="1.1" xmlns="http://www.w3.org/2000/svg" xmlns:xlink="http://www.w3.org/1999/xlink">
    <title>icon/待办任务/历史</title>
    <defs>
        <linearGradient x1="100%" y1="50%" x2="50%" y2="41.644246%" id="linearGradient-1">
            <stop stop-color="#B21515" offset="0%"></stop>
            <stop stop-color="#FFB464" offset="100%"></stop>
        </linearGradient>
        <linearGradient x1="8.29612782%" y1="0%" x2="61.1969724%" y2="0%" id="linearGradient-2">
            <stop stop-color="#F4917E" offset="0%"></stop>
            <stop stop-color="#D9494B" offset="100%"></stop>
        </linearGradient>
        <linearGradient x1="88.1703047%" y1="55.5047687%" x2="76.0904361%" y2="54.0236362%" id="linearGradient-3">
            <stop stop-color="#FCCC9C" offset="0%"></stop>
            <stop stop-color="#F37647" offset="100%"></stop>
        </linearGradient>
        <linearGradient x1="78.1723442%" y1="67.2880869%" x2="26.5226119%" y2="41.0620868%" id="linearGradient-4">
            <stop stop-color="#FFB66C" offset="0%"></stop>
            <stop stop-color="#FFDBB6" offset="100%"></stop>
        </linearGradient>
        <path d="M34.5734839,12.8963474 L34.5734839,25.416509 C34.5734839,25.5188096 34.5655823,25.6191986 34.5503767,25.7170572 C34.25107,29.4200897 31.1302699,32.3325326 27.324467,32.3325326 C23.392437,32.3325326 20.1916024,29.2236918 20.0785407,25.3461936 L20.0749261,25.1074221 L23.7000525,25.1077542 L23.6999586,25.1339455 C23.6999586,27.1217804 25.3227063,28.733239 27.324467,28.733239 C29.2690346,28.733239 30.8559376,27.2125483 30.9450304,25.3033808 L30.9489755,25.1082362 L30.9489755,12.8963474 L34.5734839,12.8963474 Z M41.2651259,12.8963474 L44.8896344,12.8963474 L44.8896344,25.1339455 C44.8896344,27.1217804 46.5123821,28.733239 48.5141428,28.733239 C50.4587104,28.733239 52.0456134,27.2125483 52.1347062,25.3033808 L52.1385573,25.1077542 L55.7636837,25.1074221 L55.7631597,25.1339455 C55.7631597,29.1096153 52.5176643,32.3325326 48.5141428,32.3325326 C44.7083399,32.3325326 41.5875399,29.4200897 41.2882332,25.7170572 L41.2709774,25.5684489 L41.2709774,25.5684489 L41.2651259,25.416509 L41.2651259,12.8963474 Z" id="path-5"></path>
        <filter x="-7.0%" y="-12.9%" width="114.0%" height="125.7%" filterUnits="objectBoundingBox" id="filter-6">
            <feGaussianBlur stdDeviation="2" in="SourceAlpha" result="shadowBlurInner1"></feGaussianBlur>
            <feOffset dx="1" dy="1" in="shadowBlurInner1" result="shadowOffsetInner1"></feOffset>
            <feComposite in="shadowOffsetInner1" in2="SourceAlpha" operator="arithmetic" k2="-1" k3="1" result="shadowInnerInner1"></feComposite>
            <feColorMatrix values="0 0 0 0 0.888502038   0 0 0 0 0.526915555   0 0 0 0 0.262182595  0 0 0 1 0" type="matrix" in="shadowInnerInner1"></feColorMatrix>
        </filter>
    </defs>
    <g id="icon/待办任务/历史" stroke="none" stroke-width="1" fill="none" fill-rule="evenodd">
        <g id="编组-2" transform="translate(5.000000, 14.000000)">
            <path d="M27.9126236,47.9094854 L58.3967707,47.9094854 L60.4034594,60.3511353 C60.5087503,61.0039479 60.0648962,61.6185121 59.4120837,61.7238029 C59.349044,61.7339705 59.2852921,61.7390787 59.2214378,61.7390787 L28.0950892,61.7390787 C27.4338401,61.7390787 26.8977918,61.2030303 26.8977918,60.5417812 C26.8977918,60.5096615 26.8990843,60.4775547 26.9016662,60.4455388 L27.9126236,47.9094854 L27.9126236,47.9094854 Z" id="三角形备份" fill="url(#linearGradient-1)"></path>
            <path d="M22.7080131,47.9094854 L53.0450912,47.9094854 L55.1819882,60.3389153 C55.2940279,60.9906035 54.8565565,61.6097273 54.2048683,61.7217671 C54.1378605,61.7332872 54.0699932,61.7390787 54.0020023,61.7390787 L20.8836954,61.7390787 C20.2224463,61.7390787 19.686398,61.2030303 19.686398,60.5417812 C19.686398,60.4469353 19.6976679,60.3524254 19.7199707,60.260239 L22.7080131,47.9094854 L22.7080131,47.9094854 Z" id="三角形备份" fill="url(#linearGradient-2)"></path>
            <g id="编组-4">
                <path d="M14.2013637,0.166160633 C15.4694946,0.166160633 16.3149153,1.4768272 16.3149153,2.58700942 L16.3149153,5.40123724 L64.6859479,5.40123724 L64.6,2.85 C64.6,2.70337216 64.5835212,2.54865949 64.5664011,2.39055539 L64.5452829,2.18577937 L64.539503,2.11863605 L64.539503,2.11863605 L64.5311339,1.98417177 C64.4920142,1.06557051 64.8716036,0.166160633 68.6401311,0.166160633 C69.8074134,0.166160633 71.2672561,1.4768272 71.2672561,2.58700942 L71.25,4.75 L77.9,4.75 C78.8338258,4.75 79.7214624,5.17122165 79.7214624,6.05936743 L79.7214624,6.86343252 C79.7214624,7.75157829 78.964447,8.4715627 78.0306212,8.4715627 L71.2672561,8.4715627 L67.1945227,44.1586076 C66.9184367,46.5777915 64.8711062,48.4047626 62.4362192,48.4047626 L20.4774966,48.4047626 C18.0202122,48.4047626 15.9616408,46.545015 15.7129056,44.1003519 L12.0878121,8.4715627 L5.32444708,8.4715627 C4.39062124,8.4715627 3.63360582,8.70157829 3.63360582,7.81343252 L3.63360582,7.00936743 C3.63360582,6.12122165 4.39062124,5.40123724 5.32444708,5.40123724 L8.67592183,5.40123724 L8.67592183,2.58700942 C8.67592183,2.54347286 8.67635063,2.49946763 8.677491,2.45510373 L8.68332966,2.32104599 C8.75021825,1.26422162 9.36624551,0.0700679743 14.2013637,0.166160633 Z M38.2958516,8.61749761 L34.0687485,8.61749761 L34.0690041,15.3217899 L33.8846058,15.2247171 L33.8852732,21.111353 C34.0045707,21.4831038 34.0687485,21.8777259 34.0687485,22.2866042 C34.0687485,24.5069686 32.1762099,26.3069296 29.8416453,26.3069296 C27.6732393,26.3069296 25.8861776,24.7540689 25.6427799,22.7538098 L21.4014543,22.7535004 C21.6557017,26.9769423 25.3372964,30.3272551 29.8416453,30.3272551 C34.2899663,30.3272551 37.9358736,27.0597705 38.2709816,22.9104873 L38.289557,22.7495871 L38.289557,22.7495871 L38.2958516,22.5852479 L38.2958516,8.61749761 Z M49.2863198,8.61749761 L45.0592166,8.61749761 L45.0592166,22.5852479 L45.0658726,22.7542195 L45.0855049,22.9195394 C45.4244662,27.0644929 49.0683176,30.3272551 53.5134229,30.3272551 C58.0177718,30.3272551 61.6993665,26.9769423 61.9536139,22.7535004 L57.7122883,22.7538098 C57.4688906,24.7540689 55.6818289,26.3069296 53.5134229,26.3069296 C51.1788583,26.3069296 49.2863198,24.5069686 49.2863198,22.2866042 C49.2863198,21.8777259 49.3504975,21.4831038 49.469795,21.111353 L49.4696058,15.2247171 L49.2860641,15.3217899 L49.2863198,8.61749761 Z" id="形状结合备份" fill="url(#linearGradient-3)"></path>
                <path d="M65.4444444,0 C66.6103789,0 67.5555556,0.904609868 67.5555556,2.02050269 L67.5555556,4.84920646 L74.3111111,4.84920646 C75.2438587,4.84920646 76,5.57289435 76,6.46560861 L76,7.27380969 C76,8.16652394 75.2438587,8.89021184 74.3111111,8.89021184 L67.5555556,8.89021184 L63.269575,44.2061659 C62.9761627,46.6238472 60.9150378,48.4363317 58.4796844,48.418236 L16.8984194,48.1092694 C14.4637497,48.0911788 12.430125,46.2492654 12.1718389,43.8282673 L8.44444444,8.89021184 L8.44444444,8.89021184 L1.68888889,8.89021184 C0.756141311,8.89021184 0,8.16652394 0,7.27380969 L0,6.46560861 C0,5.57289435 0.756141311,4.84920646 1.68888889,4.84920646 L8.44444444,4.84920646 L8.44444444,2.02050269 C8.44444444,0.904609868 9.38962108,0 10.5555556,0 C11.72149,0 12.6666667,0.904609868 12.6666667,2.02050269 L12.6666667,4.84920646 L63.3333333,4.84920646 L63.3333333,2.02050269 C63.3333333,0.904609868 64.27851,0 65.4444444,0 Z" id="路径" fill="url(#linearGradient-4)"></path>
                <g id="形状" fill-rule="nonzero">
                    <use fill="#FFBF7F" xlink:href="#path-5"></use>
                    <use fill="black" fill-opacity="1" filter="url(#filter-6)" xlink:href="#path-5"></use>
                </g>
            </g>
        </g>
        <rect id="矩形" x="0" y="0" width="90" height="90"></rect>
    </g>
</svg>