<?xml version="1.0" encoding="UTF-8"?>
<svg width="90px" height="90px" viewBox="0 0 90 90" version="1.1" xmlns="http://www.w3.org/2000/svg" xmlns:xlink="http://www.w3.org/1999/xlink">
    <title>icon/待办任务/地理</title>
    <defs>
        <linearGradient x1="62.2905342%" y1="68.8679392%" x2="7.15955701%" y2="31.1320608%" id="linearGradient-1">
            <stop stop-color="#55C393" offset="0%"></stop>
            <stop stop-color="#55C393" offset="0%"></stop>
            <stop stop-color="#A5F7D3" offset="100%"></stop>
        </linearGradient>
        <path d="M11.6658267,0.862221795 L37.3029305,6.13868229 C37.3944103,6.15751006 37.4885895,6.15920022 37.5806859,6.14366694 L67.5705777,1.08547799 C68.8040328,0.877439591 69.9725941,1.70870407 70.1806325,2.94215917 C70.1842414,2.9635559 70.1875425,2.98500338 70.190535,3.00649497 L74.7637081,35.8505167 C74.9197565,36.9712392 74.2247348,38.0351837 73.1357587,38.3425938 L46.3709463,45.8981091 C45.9188908,46.0257211 45.4383421,46.0096264 44.9958381,45.8520534 L24.3644469,38.5053397 C24.241377,38.4615152 24.1090411,38.4503759 23.980377,38.4730108 L3.1804392,42.1321864 C1.94848141,42.3489154 0.774088721,41.5259098 0.557359717,40.293952 C0.511788093,40.0349082 0.511685912,39.7699061 0.557057755,39.5108272 L6.73867321,4.21302679 C7.13426784,1.95413176 9.28615688,0.443628347 11.5450519,0.83922298 C11.5854215,0.846292802 11.6256842,0.853959914 11.6658267,0.862221795 Z" id="path-2"></path>
        <linearGradient x1="28.9303739%" y1="0%" x2="71.2168952%" y2="67.2048857%" id="linearGradient-4">
            <stop stop-color="#F9D99E" offset="0%"></stop>
            <stop stop-color="#F4AA5B" offset="100%"></stop>
        </linearGradient>
        <path d="M12.9768913,32.0152647 C20.8050966,24.2365851 24.7191993,18.0565436 24.7191993,13.4751403 C24.7191993,6.42471605 19.185618,0.709217911 12.3595996,0.709217911 C5.53358124,0.709217911 -5.08961762e-13,6.42471605 -5.08961762e-13,13.4751403 C-5.08961762e-13,18.056539 3.91409477,24.2365726 11.7422843,32.0152412 L11.7422611,32.0152645 C12.0838267,32.3546693 12.6353256,32.3546694 12.9768913,32.0152647 Z" id="path-5"></path>
        <filter x="-4.0%" y="-3.1%" width="108.1%" height="105.2%" filterUnits="objectBoundingBox" id="filter-6">
            <feGaussianBlur stdDeviation="1" in="SourceAlpha" result="shadowBlurInner1"></feGaussianBlur>
            <feOffset dx="0" dy="0" in="shadowBlurInner1" result="shadowOffsetInner1"></feOffset>
            <feComposite in="shadowOffsetInner1" in2="SourceAlpha" operator="arithmetic" k2="-1" k3="1" result="shadowInnerInner1"></feComposite>
            <feColorMatrix values="0 0 0 0 1   0 0 0 0 1   0 0 0 0 1  0 0 0 0.198344624 0" type="matrix" in="shadowInnerInner1"></feColorMatrix>
        </filter>
        <ellipse id="path-7" cx="12.0064682" cy="11.3474866" rx="4.94383985" ry="4.96452538"></ellipse>
        <filter x="-10.1%" y="-10.1%" width="120.2%" height="120.1%" filterUnits="objectBoundingBox" id="filter-8">
            <feGaussianBlur stdDeviation="0.5" in="SourceAlpha" result="shadowBlurInner1"></feGaussianBlur>
            <feOffset dx="0" dy="1" in="shadowBlurInner1" result="shadowOffsetInner1"></feOffset>
            <feComposite in="shadowOffsetInner1" in2="SourceAlpha" operator="arithmetic" k2="-1" k3="1" result="shadowInnerInner1"></feComposite>
            <feColorMatrix values="0 0 0 0 0.988235294   0 0 0 0 0.705882353   0 0 0 0 0.337254902  0 0 0 0.496776661 0" type="matrix" in="shadowInnerInner1"></feColorMatrix>
        </filter>
    </defs>
    <g id="icon/待办任务/地理" stroke="none" stroke-width="1" fill="none" fill-rule="evenodd">
        <g id="编组" transform="translate(5.000000, 17.000000)">
            <path d="M9.37237153,10.1215568 L39.4734119,17.1497438 C39.5896429,17.1768822 39.7106522,17.1760758 39.8265113,17.1473909 L71.7713373,9.23833904 C72.1760757,9.13813199 72.5854148,9.3850034 72.6856219,9.78974178 C72.6912736,9.81256911 72.6958556,9.83564804 72.699353,9.85890308 L78.3133398,47.1876813 C78.4847783,48.3276185 77.7726649,49.4144685 76.6590879,49.7124524 L46.5564694,57.7676634 C46.1111307,57.8868323 45.6400308,57.8672658 45.206108,57.7115779 L25.0678813,50.4861506 C24.6956781,50.3526072 24.2949974,50.3188387 23.9056935,50.3882039 L3.034151,54.1070431 C1.80267003,54.3264653 0.626480632,53.5060295 0.407058437,52.2745486 C0.369927231,52.0661541 0.362193181,51.8535832 0.384082061,51.6430414 L0.639190572,49.1892379 L0.639190572,49.1892379 L8.4608696,10.7063795 C8.54391882,10.2977752 8.94248271,10.0338607 9.35108696,10.11691 C9.3582038,10.1183565 9.36529939,10.1199056 9.37237153,10.1215568 Z" id="矩形" fill="#046F4C"></path>
            <g id="形状结合" transform="translate(0.073062, 7.204918)">
                <mask id="mask-3" fill="white">
                    <use xlink:href="#path-2"></use>
                </mask>
                <use id="蒙版" fill="url(#linearGradient-1)" xlink:href="#path-2"></use>
                <path d="M22.64971,-2.71142783 L24.5353597,8.73957217 L52.4638642,15.2141228 L58.3753597,14.3575722 L56.3540157,1.80761855 L57.5597316,1.80761855 L59.5973597,14.1805722 L78.6091544,11.4267316 L78.6091544,12.502695 L59.7013597,14.8125722 L59.8039472,15.4299403 L55.6173597,30.1215722 L78.6091544,26.7914892 L78.6091544,27.8674527 L55.4543597,30.6955722 L54.567444,33.8076954 L57.5597316,50.6133194 L56.3540157,50.6133194 L53.7357641,33.1761477 L54.3903597,30.8245722 L51.481336,31.18142 L24.3535175,25.0269092 L20.7403597,25.4865722 L19.6574224,29.2886491 L22.64971,46.0942731 L21.4439941,46.0942731 L18.8257425,28.6571013 L19.6713597,25.6225722 L2.04635975,27.8674527 L2.67985754,26.7914892 L19.9923597,24.4705722 L23.6882098,11.2199295 L23.4553597,9.77957217 L2.67985754,12.502695 L2.67985754,11.4267316 L23.2763597,8.66557217 L21.4439941,-2.71142783 L22.64971,-2.71142783 Z M24.7003597,9.74057217 L24.8939257,10.9108939 L21.0713597,24.3255722 L23.8727365,23.9509458 L52.4638642,30.5788805 L54.5433597,30.2775722 L58.5982314,15.7389759 L58.4723597,14.9625722 L51.481336,15.8166623 L24.7003597,9.74057217 Z" fill-opacity="0.4" fill="#FFFFFF" mask="url(#mask-3)"></path>
            </g>
            <g id="编组-2" transform="translate(26.000000, 0.000000)">
                <path d="M12.4559082,31.914806 C14.3820796,31.914806 18.0034173,29.3351211 18.0322861,29.3042602 C24.3735958,22.5253695 27.5442506,17.0541038 27.5442506,12.8904633 C27.5442506,5.771257 22.0106694,-1.2569501e-13 15.184651,-1.2569501e-13 C8.35863259,-1.2569501e-13 2.82505135,5.771257 2.82505135,12.8904633 C2.82505135,16.8045289 11.171794,19.4490732 11.171794,29.01346 C11.171794,30.6253189 10.5297368,31.914806 12.4559082,31.914806 Z" id="椭圆形" fill="#F99E37"></path>
                <g id="椭圆形">
                    <use fill="url(#linearGradient-4)" fill-rule="evenodd" xlink:href="#path-5"></use>
                    <use fill="black" fill-opacity="1" filter="url(#filter-6)" xlink:href="#path-5"></use>
                </g>
                <g id="椭圆形">
                    <use fill="#EBFFD6" fill-rule="evenodd" xlink:href="#path-7"></use>
                    <use fill="black" fill-opacity="1" filter="url(#filter-8)" xlink:href="#path-7"></use>
                </g>
            </g>
        </g>
        <rect id="矩形" x="0" y="0" width="90" height="90"></rect>
    </g>
</svg>