<?xml version="1.0" encoding="UTF-8"?>
<svg width="214px" height="244px" viewBox="0 0 214 244" version="1.1" xmlns="http://www.w3.org/2000/svg" xmlns:xlink="http://www.w3.org/1999/xlink">
    <title>tab_功能入口地理</title>
    <defs>
        <rect id="path-1" x="0" y="0" width="210" height="240" rx="11.8363636"></rect>
        <linearGradient x1="20.829123%" y1="43.8764977%" x2="38.7449511%" y2="53.7242983%" id="linearGradient-3">
            <stop stop-color="#92E2B4" offset="0%"></stop>
            <stop stop-color="#11A070" offset="100%"></stop>
        </linearGradient>
        <linearGradient x1="62.2905342%" y1="68.8679392%" x2="7.15955701%" y2="31.1320608%" id="linearGradient-4">
            <stop stop-color="#55C393" offset="0%"></stop>
            <stop stop-color="#55C393" offset="0%"></stop>
            <stop stop-color="#A5F7D3" offset="100%"></stop>
        </linearGradient>
        <path d="M18.2895816,1.35178383 L58.4832097,9.62417266 C58.6266309,9.65369067 58.7742842,9.65634049 58.9186722,9.63198756 L105.936563,1.70180294 C107.870364,1.37564215 109.702424,2.67889137 110.028585,4.61269154 C110.034243,4.64623714 110.039418,4.67986231 110.04411,4.71355665 L117.213891,56.2061281 C117.458542,57.963187 116.368893,59.6312299 114.661606,60.1131848 L72.699966,71.9586559 C71.9912373,72.1587249 71.2378373,72.1334917 70.5440834,71.8864502 L38.1983678,60.3683364 C38.0054198,60.2996288 37.7979448,60.2821647 37.5962263,60.3176515 L4.98626489,66.0544751 C3.05481219,66.3942609 1.21360956,65.10396 0.873823712,63.1725073 C0.802376918,62.7663806 0.80221672,62.3509127 0.8733503,61.944731 L10.5648332,6.60514673 C11.185043,3.06367077 14.5587559,0.695516661 18.1002319,1.31572648 C18.163523,1.32681049 18.2266465,1.33883092 18.2895816,1.35178383 Z" id="path-5"></path>
        <linearGradient x1="28.9303739%" y1="0%" x2="71.2168952%" y2="67.2048857%" id="linearGradient-7">
            <stop stop-color="#F9D99E" offset="0%"></stop>
            <stop stop-color="#F4AA5B" offset="100%"></stop>
        </linearGradient>
        <path d="M64.4261155,43.6726322 C75.0062809,33.1594028 80.2963636,24.8068036 80.2963636,18.6148345 C80.2963636,9.08587438 72.8174839,1.3611259 63.5918182,1.3611259 C54.3661525,1.3611259 46.8872727,9.08587438 46.8872727,18.6148345 C46.8872727,24.8068071 52.1773615,33.1594123 62.7575389,43.6726501 L62.7575566,43.6726323 C63.2191705,44.1313256 63.9645016,44.1313255 64.4261155,43.6726322 Z" id="path-8"></path>
        <filter x="-4.5%" y="-3.5%" width="109.0%" height="105.8%" filterUnits="objectBoundingBox" id="filter-9">
            <feGaussianBlur stdDeviation="1.5" in="SourceAlpha" result="shadowBlurInner1"></feGaussianBlur>
            <feOffset dx="0" dy="0" in="shadowBlurInner1" result="shadowOffsetInner1"></feOffset>
            <feComposite in="shadowOffsetInner1" in2="SourceAlpha" operator="arithmetic" k2="-1" k3="1" result="shadowInnerInner1"></feComposite>
            <feColorMatrix values="0 0 0 0 1   0 0 0 0 1   0 0 0 0 1  0 0 0 0.198344624 0" type="matrix" in="shadowInnerInner1"></feColorMatrix>
        </filter>
        <ellipse id="path-10" cx="63.1145455" cy="15.7392164" rx="6.68181818" ry="6.70977558"></ellipse>
        <filter x="-7.5%" y="-7.5%" width="115.0%" height="114.9%" filterUnits="objectBoundingBox" id="filter-11">
            <feGaussianBlur stdDeviation="0.5" in="SourceAlpha" result="shadowBlurInner1"></feGaussianBlur>
            <feOffset dx="0" dy="1" in="shadowBlurInner1" result="shadowOffsetInner1"></feOffset>
            <feComposite in="shadowOffsetInner1" in2="SourceAlpha" operator="arithmetic" k2="-1" k3="1" result="shadowInnerInner1"></feComposite>
            <feColorMatrix values="0 0 0 0 0.988235294   0 0 0 0 0.705882353   0 0 0 0 0.337254902  0 0 0 0.496776661 0" type="matrix" in="shadowInnerInner1"></feColorMatrix>
        </filter>
        <path d="M18.2895816,1.35178383 L58.4832097,9.62417266 C58.6266309,9.65369067 58.7742842,9.65634049 58.9186722,9.63198756 L105.936563,1.70180294 C107.870364,1.37564215 109.702424,2.67889137 110.028585,4.61269154 C110.034243,4.64623714 110.039418,4.67986231 110.04411,4.71355665 L117.213891,56.2061281 C117.458542,57.963187 116.368893,59.6312299 114.661606,60.1131848 L72.699966,71.9586559 C71.9912373,72.1587249 71.2378373,72.1334917 70.5440834,71.8864502 L38.1983678,60.3683364 C38.0054198,60.2996288 37.7979448,60.2821647 37.5962263,60.3176515 L4.98626489,66.0544751 C3.05481219,66.3942609 1.21360956,65.10396 0.873823712,63.1725073 C0.802376918,62.7663806 0.80221672,62.3509127 0.8733503,61.944731 L10.5648332,6.60514673 C11.185043,3.06367077 14.5587559,0.695516661 18.1002319,1.31572648 C18.163523,1.32681049 18.2266465,1.33883092 18.2895816,1.35178383 Z" id="path-12"></path>
        <path d="M64.4261155,43.6726322 C75.0062809,33.1594028 80.2963636,24.8068036 80.2963636,18.6148345 C80.2963636,9.08587438 72.8174839,1.3611259 63.5918182,1.3611259 C54.3661525,1.3611259 46.8872727,9.08587438 46.8872727,18.6148345 C46.8872727,24.8068071 52.1773615,33.1594123 62.7575389,43.6726501 L62.7575566,43.6726323 C63.2191705,44.1313256 63.9645016,44.1313255 64.4261155,43.6726322 Z" id="path-14"></path>
        <filter x="-4.5%" y="-3.5%" width="109.0%" height="105.8%" filterUnits="objectBoundingBox" id="filter-15">
            <feGaussianBlur stdDeviation="1.5" in="SourceAlpha" result="shadowBlurInner1"></feGaussianBlur>
            <feOffset dx="0" dy="0" in="shadowBlurInner1" result="shadowOffsetInner1"></feOffset>
            <feComposite in="shadowOffsetInner1" in2="SourceAlpha" operator="arithmetic" k2="-1" k3="1" result="shadowInnerInner1"></feComposite>
            <feColorMatrix values="0 0 0 0 1   0 0 0 0 1   0 0 0 0 1  0 0 0 0.198344624 0" type="matrix" in="shadowInnerInner1"></feColorMatrix>
        </filter>
        <ellipse id="path-16" cx="63.1145455" cy="15.7392164" rx="6.68181818" ry="6.70977558"></ellipse>
        <filter x="-7.5%" y="-7.5%" width="115.0%" height="114.9%" filterUnits="objectBoundingBox" id="filter-17">
            <feGaussianBlur stdDeviation="0.5" in="SourceAlpha" result="shadowBlurInner1"></feGaussianBlur>
            <feOffset dx="0" dy="1" in="shadowBlurInner1" result="shadowOffsetInner1"></feOffset>
            <feComposite in="shadowOffsetInner1" in2="SourceAlpha" operator="arithmetic" k2="-1" k3="1" result="shadowInnerInner1"></feComposite>
            <feColorMatrix values="0 0 0 0 0.988235294   0 0 0 0 0.705882353   0 0 0 0 0.337254902  0 0 0 0.496776661 0" type="matrix" in="shadowInnerInner1"></feColorMatrix>
        </filter>
    </defs>
    <g id="tab_功能入口地理" stroke="none" stroke-width="1" fill="none" fill-rule="evenodd">
        <g id="预习/待完成/功能入口/数学" transform="translate(2.000000, 2.000000)">
            <mask id="mask-2" fill="white">
                <use xlink:href="#path-1"></use>
            </mask>
            <use id="矩形" fill="#31C29C" xlink:href="#path-1"></use>
            <ellipse id="椭圆形" fill="url(#linearGradient-3)" mask="url(#mask-2)" cx="112.445455" cy="230.745701" rx="122.506364" ry="42.8719847"></ellipse>
            <g id="编组" transform="translate(69.567273, 115.580677)">
                <path d="M14.6939225,17.43628 L61.8860715,28.4550103 C62.0682975,28.4975576 62.2580149,28.4962934 62.4396577,28.4513214 L112.522478,16.0515788 C113.157023,15.8944751 113.798782,16.2815179 113.955885,16.9160632 C113.964746,16.9518517 113.97193,16.9880347 113.977413,17.0244937 L122.778972,75.5482273 C123.047752,77.335411 121.931307,79.0393649 120.185451,79.5065415 L72.9908274,92.1354311 C72.2926294,92.3222631 71.5540431,92.2915869 70.8737427,92.0475008 L39.3012061,80.7195388 C38.7176692,80.5101706 38.0894854,80.4572286 37.4791381,80.5659787 L4.75691552,86.3963424 C2.82621039,86.7403507 0.982190882,85.4540787 0.638182675,83.5233735 C0.579968693,83.1966545 0.567843316,82.8633877 0.602160513,82.5333021 L1.00211742,78.6862503 L1.00211742,78.6862503 L13.2648777,18.3531599 C13.3950816,17.7125537 14.0199465,17.2987908 14.6605527,17.4289947 C14.6717105,17.4312625 14.6828349,17.4336912 14.6939225,17.43628 Z" id="矩形" fill="#046F4C"></path>
                <g id="形状结合" transform="translate(0.114545, 12.863598)">
                    <mask id="mask-6" fill="white">
                        <use xlink:href="#path-5"></use>
                    </mask>
                    <use id="蒙版" fill="url(#linearGradient-4)" xlink:href="#path-5"></use>
                    <path d="M35.5100182,-4.25095295 L38.467265,13.7020471 L82.2523897,23.8525693 L91.520265,22.5090471 L88.3513353,2.83396863 L90.2416461,2.83396863 L93.436265,22.2320471 L123.242748,17.9147303 L123.242748,19.6016164 L93.600265,23.2220471 L93.7601079,24.190926 L87.196265,47.2250471 L123.242748,42.0034636 L123.242748,43.6903497 L86.940265,48.1240471 L85.5503637,53.0034106 L90.2416461,79.3511217 L88.3513353,79.3511217 L84.2464632,52.0132755 L85.274265,48.3280471 L80.7119904,48.8859589 L38.1812328,39.2369704 L32.516265,39.9570471 L30.8187358,45.9184891 L35.5100182,72.2662001 L33.6197073,72.2662001 L29.5148352,44.9283539 L30.841265,40.1710471 L3.208265,43.6903497 L4.20145732,42.0034636 L31.344265,38.3650471 L37.1381691,17.5905078 L36.773265,15.3320471 L4.20145732,19.6016164 L4.20145732,17.9147303 L36.492265,13.5860471 L33.6197073,-4.25095295 L35.5100182,-4.25095295 Z M38.726265,15.2720471 L39.02848,17.1060045 L33.035265,38.1390471 L37.4274685,37.5500844 L82.2523897,47.9413027 L85.513265,47.4690471 L91.8697971,24.6754294 L91.673265,23.4580471 L80.7119904,24.7972255 L38.726265,15.2720471 Z" fill-opacity="0.4" fill="#FFFFFF" mask="url(#mask-6)"></path>
                </g>
                <path d="M63.7219835,43.5368581 C66.3252893,43.5368581 71.2196874,40.0502999 71.2587048,40.0085901 C79.8292652,30.8466195 84.1145455,23.451962 84.1145455,17.8246177 C84.1145455,8.20269557 76.6356657,0.402586535 67.41,0.402586535 C58.1843343,0.402586535 50.7054545,8.20269557 50.7054545,17.8246177 C50.7054545,23.1146505 61.9864463,26.6888689 61.9864463,39.6155607 C61.9864463,41.7940593 61.1186777,43.5368581 63.7219835,43.5368581 Z" id="椭圆形" fill="#F99E37"></path>
                <g id="椭圆形">
                    <use fill="url(#linearGradient-7)" fill-rule="evenodd" xlink:href="#path-8"></use>
                    <use fill="black" fill-opacity="1" filter="url(#filter-9)" xlink:href="#path-8"></use>
                </g>
                <g id="椭圆形">
                    <use fill="#EBFFD6" fill-rule="evenodd" xlink:href="#path-10"></use>
                    <use fill="black" fill-opacity="1" filter="url(#filter-11)" xlink:href="#path-10"></use>
                </g>
            </g>
            <g id="编组" transform="translate(69.567273, 115.580677)">
                <path d="M14.6939225,17.43628 L61.8860715,28.4550103 C62.0682975,28.4975576 62.2580149,28.4962934 62.4396577,28.4513214 L112.522478,16.0515788 C113.157023,15.8944751 113.798782,16.2815179 113.955885,16.9160632 C113.964746,16.9518517 113.97193,16.9880347 113.977413,17.0244937 L122.778972,75.5482273 C123.047752,77.335411 121.931307,79.0393649 120.185451,79.5065415 L72.9908274,92.1354311 C72.2926294,92.3222631 71.5540431,92.2915869 70.8737427,92.0475008 L39.3012061,80.7195388 C38.7176692,80.5101706 38.0894854,80.4572286 37.4791381,80.5659787 L4.75691552,86.3963424 C2.82621039,86.7403507 0.982190882,85.4540787 0.638182675,83.5233735 C0.579968693,83.1966545 0.567843316,82.8633877 0.602160513,82.5333021 L1.00211742,78.6862503 L1.00211742,78.6862503 L13.2648777,18.3531599 C13.3950816,17.7125537 14.0199465,17.2987908 14.6605527,17.4289947 C14.6717105,17.4312625 14.6828349,17.4336912 14.6939225,17.43628 Z" id="矩形" fill="#046F4C"></path>
                <g id="形状结合" transform="translate(0.114545, 12.863598)">
                    <mask id="mask-13" fill="white">
                        <use xlink:href="#path-12"></use>
                    </mask>
                    <use id="蒙版" fill="url(#linearGradient-4)" xlink:href="#path-12"></use>
                    <path d="M35.5100182,-4.25095295 L38.467265,13.7020471 L82.2523897,23.8525693 L91.520265,22.5090471 L88.3513353,2.83396863 L90.2416461,2.83396863 L93.436265,22.2320471 L123.242748,17.9147303 L123.242748,19.6016164 L93.600265,23.2220471 L93.7601079,24.190926 L87.196265,47.2250471 L123.242748,42.0034636 L123.242748,43.6903497 L86.940265,48.1240471 L85.5503637,53.0034106 L90.2416461,79.3511217 L88.3513353,79.3511217 L84.2464632,52.0132755 L85.274265,48.3280471 L80.7119904,48.8859589 L38.1812328,39.2369704 L32.516265,39.9570471 L30.8187358,45.9184891 L35.5100182,72.2662001 L33.6197073,72.2662001 L29.5148352,44.9283539 L30.841265,40.1710471 L3.208265,43.6903497 L4.20145732,42.0034636 L31.344265,38.3650471 L37.1381691,17.5905078 L36.773265,15.3320471 L4.20145732,19.6016164 L4.20145732,17.9147303 L36.492265,13.5860471 L33.6197073,-4.25095295 L35.5100182,-4.25095295 Z M38.726265,15.2720471 L39.02848,17.1060045 L33.035265,38.1390471 L37.4274685,37.5500844 L82.2523897,47.9413027 L85.513265,47.4690471 L91.8697971,24.6754294 L91.673265,23.4580471 L80.7119904,24.7972255 L38.726265,15.2720471 Z" fill-opacity="0.4" fill="#FFFFFF" mask="url(#mask-13)"></path>
                </g>
                <path d="M63.7219835,43.5368581 C66.3252893,43.5368581 71.2196874,40.0502999 71.2587048,40.0085901 C79.8292652,30.8466195 84.1145455,23.451962 84.1145455,17.8246177 C84.1145455,8.20269557 76.6356657,0.402586535 67.41,0.402586535 C58.1843343,0.402586535 50.7054545,8.20269557 50.7054545,17.8246177 C50.7054545,23.1146505 61.9864463,26.6888689 61.9864463,39.6155607 C61.9864463,41.7940593 61.1186777,43.5368581 63.7219835,43.5368581 Z" id="椭圆形" fill="#F99E37"></path>
                <g id="椭圆形">
                    <use fill="url(#linearGradient-7)" fill-rule="evenodd" xlink:href="#path-14"></use>
                    <use fill="black" fill-opacity="1" filter="url(#filter-15)" xlink:href="#path-14"></use>
                </g>
                <g id="椭圆形">
                    <use fill="#EBFFD6" fill-rule="evenodd" xlink:href="#path-16"></use>
                    <use fill="black" fill-opacity="1" filter="url(#filter-17)" xlink:href="#path-16"></use>
                </g>
            </g>
        </g>
    </g>
</svg>